<svg xmlns="http://www.w3.org/2000/svg" width="33" height="33" viewBox="0 0 33 33"><g transform="translate(0.5 4.5)"><rect width="32" height="32" opacity="0" fill="#d8d8d8" stroke="#979797" stroke-miterlimit="10" stroke-width="1" transform="translate(0 -4)"/><path d="M8.97,22.548c-.4-.13-.73-.71-1.05-1.28-.11-.19-.22-.37-.33-.55a3.364,3.364,0,0,0-.85-.98,3.351,3.351,0,0,0-1.21-.51c-.21-.05-.42-.1-.63-.14a2.756,2.756,0,0,1-1.53-.6,2.681,2.681,0,0,1-.1-1.62,4.828,4.828,0,0,0-.05-1.97,4.7,4.7,0,0,0-1.08-1.57c-.44-.48-.9-.99-.9-1.42s.46-.94.9-1.42a4.733,4.733,0,0,0,1.09-1.57,4.821,4.821,0,0,0,.06-1.97,2.681,2.681,0,0,1,.1-1.62,2.756,2.756,0,0,1,1.53-.6c.21-.04.42-.09.63-.14a3.351,3.351,0,0,0,1.21-.51,3.5,3.5,0,0,0,.85-.98c.11-.18.22-.37.33-.55.32-.57.65-1.15,1.05-1.28a2.074,2.074,0,0,1,1.25.28A9,9,0,0,1,10.93.5,3.3,3.3,0,0,0,8.61.088a3.463,3.463,0,0,0-1.77,1.84,3.879,3.879,0,0,1-.83,1.15,3.95,3.95,0,0,1-1.36.44A3.532,3.532,0,0,0,2.37,4.6a3.5,3.5,0,0,0-.32,2.49,3.9,3.9,0,0,1,0,1.45,4.3,4.3,0,0,1-.82,1.11A3.527,3.527,0,0,0,0,11.908a3.527,3.527,0,0,0,1.23,2.26,3.88,3.88,0,0,1,.82,1.11,3.9,3.9,0,0,1,0,1.45,3.512,3.512,0,0,0,.33,2.49A3.509,3.509,0,0,0,4.66,20.3a3.95,3.95,0,0,1,1.36.44,3.943,3.943,0,0,1,.82,1.14,3.519,3.519,0,0,0,1.75,1.85,1.948,1.948,0,0,0,.58.09,4.347,4.347,0,0,0,1.74-.5,9,9,0,0,1-.69-1.05A2,2,0,0,1,8.97,22.548Z" transform="translate(0.44 0.092)" fill="#2983ff"/><path d="M0,4.39H3.32L1.66,0Z" transform="translate(15.09 8.84)" fill="#2983ff"/><path d="M11.82,21.6c-1.049,0-2.24,1-3.25,1a1.319,1.319,0,0,1-.4-.06,1.455,1.455,0,0,1-.481-.29,4.082,4.082,0,0,1-.81-1.07,4.915,4.915,0,0,0-1.12-1.55c-.93-.679-2.82-.45-3.5-1.39s.12-2.641-.24-3.76C1.67,13.41,0,12.49,0,11.3S1.67,9.19,2.02,8.12C2.38,7,1.58,5.28,2.25,4.36c.68-.94,2.56-.709,3.5-1.39A4.915,4.915,0,0,0,6.87,1.42,4.133,4.133,0,0,1,7.68.35,1.391,1.391,0,0,1,8.16.06,1.319,1.319,0,0,1,8.56,0c1,0,2.2,1,3.25,1s2.24-1,3.25-1a1.172,1.172,0,0,1,.41.07c1.11.36,1.47,2.219,2.4,2.9s2.82.45,3.5,1.39S21.25,7,21.61,8.12c.35,1.07,2.02,1.99,2.02,3.181s-1.67,2.1-2.02,3.18c-.37,1.12.43,2.84-.24,3.77s-2.56.71-3.5,1.39-1.281,2.54-2.4,2.9a1.325,1.325,0,0,1-.4.06C14.07,22.6,12.87,21.6,11.82,21.6Z" transform="translate(4.94 0.7)" fill="#2983ff"/></g></svg>