<svg xmlns="http://www.w3.org/2000/svg" width="16.409" height="16" viewBox="0 0 16.409 16"><defs><style>.cls-1{fill:none;}.cls-2{fill:#333;}</style></defs><title>ampcredit-01</title><g id="Layer_2" data-name="Layer 2"><g id="Layer_1-2" data-name="Layer 1"><g id="ampcredit-01"><rect id="Rectangle_1" data-name="Rectangle 1" class="cls-1" x="0.243" width="16" height="16"/><path id="Path" class="cls-2" d="M5.233,14.207c-.233-.076-.426-.414-.613-.747-.064-.111-.128-.216-.193-.321a1.96309,1.96309,0,0,0-.5-.572,1.95409,1.95409,0,0,0-.706-.3c-.123-.029-.245-.058-.368-.082a1.608,1.608,0,0,1-.893-.35,1.56405,1.56405,0,0,1-.058-.945,2.81613,2.81613,0,0,0-.024-1.146,2.74293,2.74293,0,0,0-.63-.916C.992,8.549.723,8.254.723,8s.268-.548.525-.828a2.7609,2.7609,0,0,0,.636-.918,2.812,2.812,0,0,0,.035-1.149,1.56405,1.56405,0,0,1,.058-.945,1.608,1.608,0,0,1,.892-.35c.123-.023.245-.053.368-.082a1.95409,1.95409,0,0,0,.706-.3,2.0409,2.0409,0,0,0,.5-.572c.064-.105.128-.216.193-.321.187-.333.379-.671.613-.747a1.21,1.21,0,0,1,.724.166,5.25059,5.25059,0,0,1,.4-.613,1.924,1.924,0,0,0-1.35-.236A2.02,2.02,0,0,0,3.99,2.179a2.26286,2.26286,0,0,1-.484.671,2.30007,2.30007,0,0,1-.793.257,2.06,2.06,0,0,0-1.33.63A2.043,2.043,0,0,0,1.2,5.189a2.276,2.276,0,0,1,0,.846,2.50988,2.50988,0,0,1-.478.648A2.057,2.057,0,0,0,0,8,2.057,2.057,0,0,0,.717,9.319a2.26292,2.26292,0,0,1,.478.648,2.276,2.276,0,0,1,0,.846,2.049,2.049,0,0,0,.192,1.452,2.047,2.047,0,0,0,1.33.63,2.30007,2.30007,0,0,1,.793.257,2.30011,2.30011,0,0,1,.478.665,2.053,2.053,0,0,0,1.021,1.079,1.136,1.136,0,0,0,.338.052,2.536,2.536,0,0,0,1.017-.294,5.25059,5.25059,0,0,1-.4-.613A1.169,1.169,0,0,1,5.233,14.207Z"/><path id="Path-2" class="cls-2" d="M8.545,8.718h1.937L9.513,6.157Z"/><path id="Shape" class="cls-2" d="M11.416,14.591a2.438,2.438,0,0,1-.926-.286,2.559,2.559,0,0,0-.971-.3,2.54093,2.54093,0,0,0-.966.3,2.47612,2.47612,0,0,1-.928.286.78776.78776,0,0,1-.234-.035.853.853,0,0,1-.28-.169,2.40794,2.40794,0,0,1-.472-.624l-.068-.12a2.44209,2.44209,0,0,0-.585-.784,2.477,2.477,0,0,0-.93-.318,1.776,1.776,0,0,1-1.112-.493,1.758,1.758,0,0,1-.125-1.2,2.528,2.528,0,0,0-.016-.994,2.40013,2.40013,0,0,0-.555-.779A1.8,1.8,0,0,1,2.625,8a1.8,1.8,0,0,1,.624-1.076,2.40013,2.40013,0,0,0,.555-.779,2.542,2.542,0,0,0,.015-1,1.759,1.759,0,0,1,.119-1.192,1.774,1.774,0,0,1,1.11-.495,2.50694,2.50694,0,0,0,.931-.318,2.425,2.425,0,0,0,.58-.777l.074-.127a2.3561,2.3561,0,0,1,.472-.628.813.813,0,0,1,.28-.165.777.777,0,0,1,.233-.035,2.43894,2.43894,0,0,1,.925.286,2.563,2.563,0,0,0,.971.3,2.53788,2.53788,0,0,0,.965-.3,2.47511,2.47511,0,0,1,.931-.286.7.7,0,0,1,.239.04c.365.119.594.521.816.91a2.50011,2.50011,0,0,0,.584.782,2.48209,2.48209,0,0,0,.93.318,1.776,1.776,0,0,1,1.112.493,1.759,1.759,0,0,1,.124,1.2,2.531,2.531,0,0,0,.015.994,2.40013,2.40013,0,0,0,.555.779A1.8,1.8,0,0,1,16.409,8a1.782,1.782,0,0,1-.621,1.07,2.427,2.427,0,0,0-.558.785,2.528,2.528,0,0,0-.018,1.005,1.778,1.778,0,0,1-.121,1.194,1.774,1.774,0,0,1-1.111.493,2.511,2.511,0,0,0-.931.318,2.43512,2.43512,0,0,0-.582.78c-.221.39-.449.793-.818.911A.777.777,0,0,1,11.416,14.591ZM8.3,9.377h2.433l.549,1.458h.781L9.911,5.171H9.125L6.971,10.835h.781L8.3,9.378Z"/></g></g></g></svg>