<?xml version="1.0" encoding="utf-8"?>
<!-- Generator: Adobe Illustrator 24.0.1, SVG Export Plug-In . SVG Version: 6.00 Build 0)  -->
<svg version="1.1" id="Layer_1" xmlns="http://www.w3.org/2000/svg" xmlns:xlink="http://www.w3.org/1999/xlink" x="0px" y="0px"
	 width="2.25px" height="18px" viewBox="0 0 2.25 18" style="enable-background:new 0 0 2.25 18;" xml:space="preserve">
<g>
	<path d="M1.125,7.875C1.74727,7.875,2.25,8.37773,2.25,9s-0.50273,1.125-1.125,1.125S0,9.62227,0,9S0.50273,7.875,1.125,7.875z
		 M0,4.78125c0,0.62227,0.50273,1.125,1.125,1.125s1.125-0.50273,1.125-1.125s-0.50273-1.125-1.125-1.125S0,4.15898,0,4.78125z
		 M0,13.21875c0,0.62227,0.50273,1.125,1.125,1.125s1.125-0.50273,1.125-1.125s-0.50273-1.125-1.125-1.125S0,12.59648,0,13.21875z"
		/>
</g>
</svg>
